<?xml version="1.0" encoding="utf-8"?>
<svg viewBox="4.8332 11.975 89.9917 74.825" width="89.9917" height="74.825" xmlns="http://www.w3.org/2000/svg">
  <defs>
    <style type="text/css">
	.st0{fill:#FFFFFF;}
	.st1{fill:none;stroke:#000000;stroke-width:5;stroke-linecap:round;stroke-linejoin:round;stroke-miterlimit:10;}
</style>
  </defs>
  <path d="M 88.602 46.467 L 50.848 15.268 C 50.048 14.624 48.894 14.624 48.094 15.268 L 10.34 46.467 C 9.363 47.295 9.185 48.676 9.985 49.688 C 10.429 50.24 11.051 50.516 11.761 50.516 C 12.206 50.516 12.739 50.332 13.183 50.056 L 49.515 20.054 L 85.848 50.056 C 86.825 50.885 88.247 50.701 88.957 49.688 C 89.668 48.768 89.579 47.295 88.602 46.467 Z" style=""/>
  <path d="M 74.566 48.032 C 73.323 48.032 72.346 49.044 72.346 50.332 L 72.346 79.046 L 61.064 79.046 L 61.064 66.622 C 61.064 59.996 55.823 54.566 49.427 54.566 C 43.031 54.566 37.789 59.996 37.789 66.622 L 37.789 79.046 L 26.597 79.046 L 26.597 50.332 C 26.597 49.044 25.619 48.032 24.376 48.032 C 23.132 48.032 22.155 49.044 22.155 50.332 L 22.155 81.347 C 22.155 82.636 23.132 83.648 24.376 83.648 L 40.01 83.648 C 41.254 83.648 42.231 82.636 42.231 81.347 L 42.231 66.622 C 42.231 62.481 45.429 59.167 49.427 59.167 C 53.424 59.167 56.622 62.481 56.622 66.622 L 56.622 81.347 C 56.622 82.636 57.599 83.648 58.843 83.648 L 74.566 83.648 C 75.81 83.648 76.787 82.636 76.787 81.347 L 76.787 50.332 C 76.787 49.044 75.721 48.032 74.566 48.032 Z" style=""/>
</svg>